HIERARCHY
ROOT pelvis
{
	OFFSET 0.000000 0.676533 -0.000000
	CHANNELS 6 Xposition Yposition Zposition Xrotation Yrotation Zrotation
	JOINT spine
	{
		OFFSET 0.000000 0.000000 0.000000
		CHANNELS 6 Xposition Yposition Zposition Xrotation Yrotation Zrotation
		JOINT spine.001
		{
			OFFSET 0.000000 0.240098 0.012583
			CHANNELS 3 Xrotation Yrotation Zrotation
			JOINT neck
			{
				OFFSET 0.000000 0.238635 -0.029301
				CHANNELS 6 Xposition Yposition Zposition Xrotation Yrotation Zrotation
				JOINT face
				{
					OFFSET 0.000000 0.178174 -0.003110
					CHANNELS 6 Xposition Yposition Zposition Xrotation Yrotation Zrotation
					End Site
					{
						OFFSET 0.000000 -0.007061 0.022528
					}
				}
			}
			JOINT shoulder.L
			{
				OFFSET 0.000000 0.238635 -0.029301
				CHANNELS 6 Xposition Yposition Zposition Yrotation Xrotation Zrotation
				JOINT upper_arm.L
				{
					OFFSET 0.144247 0.000000 0.000000
					CHANNELS 6 Xposition Yposition Zposition Xrotation Yrotation Zrotation
					JOINT forearm.L
					{
						OFFSET 0.241736 0.000864 -0.000104
						CHANNELS 6 Xposition Yposition Zposition Xrotation Yrotation Zrotation
						End Site
						{
							OFFSET 0.220586 -0.001191 0.003755
						}
					}
				}
			}
			JOINT shoulder.R
			{
				OFFSET 0.000000 0.238635 -0.029301
				CHANNELS 6 Xposition Yposition Zposition Yrotation Xrotation Zrotation
				JOINT upper_arm.R
				{
					OFFSET -0.144247 0.000000 0.000000
					CHANNELS 6 Xposition Yposition Zposition Xrotation Yrotation Zrotation
					JOINT forearm.R
					{
						OFFSET -0.240681 0.000864 -0.000104
						CHANNELS 6 Xposition Yposition Zposition Xrotation Yrotation Zrotation
						End Site
						{
							OFFSET -0.216173 -0.001191 0.003678
						}
					}
				}
			}
		}
	}
	JOINT pelvis.L
	{
		OFFSET 0.000000 0.000000 0.000000
		CHANNELS 6 Xposition Yposition Zposition Yrotation Xrotation Zrotation
		End Site
		{
			OFFSET 0.090690 0.000000 0.000000
		}
	}
	JOINT pelvis.R
	{
		OFFSET 0.000000 0.000000 0.000000
		CHANNELS 6 Xposition Yposition Zposition Yrotation Xrotation Zrotation
		End Site
		{
			OFFSET -0.090690 0.000000 0.000000
		}
	}
	JOINT thigh.L
	{
		OFFSET 0.090690 0.000000 0.000000
		CHANNELS 6 Xposition Yposition Zposition Xrotation Yrotation Zrotation
		JOINT shin.L
		{
			OFFSET 0.016922 -0.322884 0.000000
			CHANNELS 6 Xposition Yposition Zposition Xrotation Yrotation Zrotation
			JOINT foot.L
			{
				OFFSET 0.015376 -0.293391 0.000000
				CHANNELS 6 Xposition Yposition Zposition Xrotation Yrotation Zrotation
				End Site
				{
					OFFSET 0.013618 -0.058304 0.138845
				}
			}
		}
	}
	JOINT thigh.R
	{
		OFFSET -0.090690 0.000000 0.000000
		CHANNELS 6 Xposition Yposition Zposition Xrotation Yrotation Zrotation
		JOINT shin.R
		{
			OFFSET -0.017084 -0.325982 0.000000
			CHANNELS 6 Xposition Yposition Zposition Xrotation Yrotation Zrotation
			JOINT foot.R
			{
				OFFSET -0.015190 -0.289837 0.000000
				CHANNELS 6 Xposition Yposition Zposition Xrotation Yrotation Zrotation
				End Site
				{
					OFFSET -0.013876 -0.059412 0.141485
				}
			}
		}
	}
}
MOTION
Frames: 4
Frame Time: 0.041667
0.065907 -0.001783 0.025015 0.000000 -5.431565 0.000001 0.000000 -0.000000 0.000000 -7.303396 0.415995 -3.566043 10.012251 -3.382179 0.415763 -0.000000 0.238635 -0.029301 17.485187 3.977101 -0.454893 -0.000000 0.178174 -0.003110 2.041357 -0.000002 -0.000000 -0.000000 0.238636 -0.029301 0.174007 -0.002150 1.418236 0.144247 0.000000 0.000000 -2.180257 -2.505937 -81.350750 0.241736 0.000864 -0.000104 -3.358113 -25.102081 -15.498321 -0.000000 0.238636 -0.029301 0.167483 -0.001990 1.364868 -0.144246 -0.000000 0.000000 -1.323765 1.535736 80.129963 -0.240681 0.000864 -0.000104 -3.193369 23.673705 15.729195 0.000000 -0.000000 0.000000 -0.000051 -0.000001 -2.013880 0.000000 0.000000 0.000000 -0.000000 -0.000000 -2.013911 0.090634 -0.003187 0.000000 4.753951 -0.057756 -7.391146 0.016922 -0.322884 0.000000 -1.703589 -0.029830 -3.994408 0.015376 -0.293391 0.000000 -7.914692 9.949495 5.769580 -0.090634 0.003187 -0.000000 -3.331497 0.220333 -1.565475 -0.017084 -0.325982 0.000000 15.702479 0.035535 6.257683 -0.015190 -0.289837 0.000000 -11.048823 -20.293213 -11.914880 
0.065190 -0.001616 0.024066 0.000000 -5.493579 0.000001 -0.000000 -0.000000 0.000000 -7.173386 0.415369 -3.596140 10.011191 -3.231321 0.397175 -0.000000 0.238635 -0.029301 17.351221 3.827226 -0.473053 0.000000 0.178174 -0.003110 2.017122 -0.000002 0.000001 -0.000000 0.238636 -0.029301 0.185547 -0.002453 1.511576 0.144247 0.000000 0.000000 -2.787610 -3.224820 -81.227943 0.241736 0.000864 -0.000104 -3.127801 -24.005111 -15.165276 -0.000000 0.238636 -0.029301 0.178983 -0.002282 1.458120 -0.144247 -0.000000 -0.000000 -1.170029 1.375448 79.179118 -0.240681 0.000864 -0.000104 -3.602463 24.506937 17.108452 -0.000000 -0.000000 -0.000000 -0.000003 -0.000000 -1.910827 -0.000000 0.000000 -0.000000 -0.000000 -0.000000 -1.910828 0.090640 -0.003024 -0.000000 4.584057 -0.052705 -7.316653 0.016922 -0.322884 0.000000 -1.541636 -0.025860 -4.078044 0.015376 -0.293391 0.000000 -7.183641 10.982632 6.120848 -0.090640 0.003024 -0.000000 -3.764786 0.241871 -1.349335 -0.017084 -0.325982 0.000000 16.474572 0.007410 6.051201 -0.015190 -0.289837 0.000000 -11.507571 -19.581505 -11.685565 
0.064168 -0.001504 0.023073 0.000000 -5.593768 0.000001 0.000000 0.000000 0.000000 -7.042511 0.417740 -3.653274 10.010048 -3.065304 0.376716 -0.000000 0.238635 -0.029301 17.324037 3.793884 -0.534658 -0.000000 0.178174 -0.003110 1.919584 -0.000003 0.000003 -0.000000 0.238636 -0.029301 0.194446 -0.002684 1.583443 0.144247 0.000000 0.000000 -3.301839 -3.833167 -81.162557 0.241736 0.000864 -0.000104 -2.824240 -22.777117 -14.501757 -0.000000 0.238636 -0.029301 0.187861 -0.002507 1.529986 -0.144246 0.000000 0.000000 -1.010757 1.199146 78.378210 -0.240681 0.000864 -0.000104 -4.007954 25.289829 18.404805 0.000000 0.000000 0.000000 0.000032 0.000000 -1.861695 0.000000 0.000000 0.000000 -0.000000 -0.000000 -1.861697 0.090642 -0.002946 -0.000000 4.514699 -0.050024 -7.268828 0.016922 -0.322884 0.000000 -1.606598 -0.027551 -4.035706 0.015376 -0.293391 0.000000 -6.762140 11.613275 6.333406 -0.090642 0.002946 -0.000000 -4.263177 0.268600 -1.206971 -0.017084 -0.325982 0.000000 17.388046 0.010602 6.069320 -0.015190 -0.289837 0.000000 -11.576743 -19.050422 -11.423863 
0.062746 -0.001366 0.021976 0.000000 -5.709382 0.000001 0.000000 0.000000 0.000000 -6.909519 0.424453 -3.750442 10.009519 -2.975500 0.365704 0.000000 0.238635 -0.029301 17.416977 3.977256 -0.655294 0.000000 0.178174 -0.003110 1.756819 0.000002 0.000001 -0.000000 0.238635 -0.029301 0.198113 -0.002789 1.614167 0.144247 0.000000 -0.000000 -3.667562 -4.263451 -81.159094 0.241736 0.000864 -0.000104 -2.440508 -21.377932 -13.417102 -0.000000 0.238635 -0.029301 0.191600 -0.002612 1.560800 -0.144247 -0.000000 -0.000000 -0.829471 0.987370 77.711515 -0.240681 0.000864 -0.000104 -4.437257 26.045600 19.738632 -0.000000 0.000000 -0.000000 0.000076 0.000002 -1.864182 -0.000000 0.000000 -0.000000 -0.000000 0.000000 -1.864183 0.090642 -0.002950 0.000000 4.501697 -0.047545 -7.209476 0.016922 -0.322884 0.000000 -1.802286 -0.032433 -3.938687 0.015376 -0.293391 0.000000 -6.637578 11.812104 6.401214 -0.090642 0.002950 -0.000000 -4.867748 0.303858 -1.139684 -0.017084 -0.325982 0.000000 18.566879 0.047194 6.288706 -0.015190 -0.289837 0.000000 -11.319310 -18.594866 -11.100259 
